<?xml version="1.0" standalone="no"?>
<svg viewBox="0 0 200 200" xmlns="http://www.w3.org/2000/svg">
  <path fill="#76B3D0" d="M26.6,-42.8C40.7,-38,62.6,-43.4,70.3,-38C78,-32.5,71.4,-16.3,65.4,-3.5C59.4,9.3,53.9,18.6,47.9,27.1C42,35.5,35.6,43.1,27.6,46.7C19.5,50.3,9.8,50,-3.3,55.7C-16.4,61.5,-32.8,73.4,-44.2,71.7C-55.6,70.1,-62,54.8,-68.5,40.6C-74.9,26.3,-81.4,13.2,-80,0.8C-78.6,-11.6,-69.4,-23.1,-58.5,-29.6C-47.5,-36,-34.9,-37.4,-24.9,-44.6C-14.9,-51.8,-7.5,-64.8,-0.6,-63.8C6.3,-62.7,12.5,-47.6,26.6,-42.8Z" transform="translate(100 100)" />
</svg>
